<?xml version="1.0" encoding="UTF-8" standalone="no"?>
<svg
   width="210mm"
   height="297mm"
   viewBox="0 0 210 297"
   version="1.1"
   id="svg2047"
   inkscape:version="1.1 (c4e8f9e, 2021-05-24)"
   sodipodi:docname="categoricalData.svg"
   xmlns:inkscape="http://www.inkscape.org/namespaces/inkscape"
   xmlns:sodipodi="http://sodipodi.sourceforge.net/DTD/sodipodi-0.dtd"
   xmlns="http://www.w3.org/2000/svg"
   xmlns:svg="http://www.w3.org/2000/svg"
   xmlns:rdf="http://www.w3.org/1999/02/22-rdf-syntax-ns#"
   xmlns:cc="http://creativecommons.org/ns#"
   xmlns:dc="http://purl.org/dc/elements/1.1/">
  <defs
     id="defs2041" />
  <sodipodi:namedview
     id="base"
     pagecolor="#ffffff"
     bordercolor="#666666"
     borderopacity="1.0"
     inkscape:pageopacity="0.0"
     inkscape:pageshadow="2"
     inkscape:zoom="0.9899495"
     inkscape:cx="286.88332"
     inkscape:cy="393.45441"
     inkscape:document-units="mm"
     inkscape:current-layer="layer1"
     inkscape:document-rotation="0"
     showgrid="false"
     inkscape:window-width="1869"
     inkscape:window-height="1027"
     inkscape:window-x="51"
     inkscape:window-y="25"
     inkscape:window-maximized="1"
     inkscape:pagecheckerboard="0" />
  <metadata
     id="metadata2044">
    <rdf:RDF>
      <cc:Work
         rdf:about="">
        <dc:format>image/svg+xml</dc:format>
        <dc:type
           rdf:resource="http://purl.org/dc/dcmitype/StillImage" />
        <dc:title />
      </cc:Work>
    </rdf:RDF>
  </metadata>
  <g
     inkscape:label="Layer 1"
     inkscape:groupmode="layer"
     id="layer1">
    <g
       id="g1026"
       transform="translate(-5.1763612,-5.61266)"
       inkscape:export-filename="/Users/vdunbar/OneDrive - UBC/Instruction/COHR/2021_Fall/images/ordinal-1.png"
       inkscape:export-xdpi="600"
       inkscape:export-ydpi="600">
      <path
         style="fill:#aad400;stroke-width:5.56501;stroke-linecap:round;paint-order:markers fill stroke"
         id="path2610"
         d="m 44.116945,58.22008 c 1.495546,0.267094 2.98673,0.527376 4.499006,0.681561 2.182572,0.160163 4.371393,0.235316 6.558394,0.312428 2.993162,0.09472 5.988312,0.09402 8.982649,0.09903 4.234892,0.0404 8.468876,0.15598 12.701709,0.290785 4.303681,0.155001 8.609563,0.21644 12.915593,0.253968 5.517867,-0.0071 11.033654,0.153863 16.550454,0.242922 7.7195,0.104108 15.43974,0.123555 23.15981,0.142079 8.19763,0.01156 16.39527,0.0073 24.5929,0.0044 5.88217,-0.0059 11.76434,-7.93e-4 17.6465,0.01032 0,0 -2.00758,-0.317952 -2.00758,-0.317952 v 0 c -5.83165,0.01236 -11.66332,0.0182 -17.49498,0.01368 -6.95049,-0.0011 -13.90099,-7.94e-4 -20.85148,-0.0087 -7.71022,-0.01138 -15.42071,-0.03126 -23.13024,-0.143883 C 102.76359,59.707528 97.288841,59.530274 91.811566,59.53691 87.505502,59.50256 83.199509,59.4422 78.895799,59.2879 74.669681,59.152147 70.442404,59.037133 66.214325,58.987783 c -2.970011,-0.0105 -5.9407,-0.01259 -8.909619,-0.103479 -2.181666,-0.07644 -4.364587,-0.155403 -6.542688,-0.300873 -1.488868,-0.14342 -2.956107,-0.388829 -4.423293,-0.674415 0,0 -2.22178,0.311046 -2.22178,0.311046 z"
         inkscape:export-xdpi="600"
         inkscape:export-ydpi="600" />
      <path
         style="fill:#aad400;stroke-width:5.56501;stroke-linecap:round;paint-order:markers fill stroke"
         id="path2614"
         d="m 52.405472,57.390794 c 0.07095,0.845254 0.114287,1.692267 0.155994,2.539346 0,0 0.763248,-0.0037 0.763248,-0.0037 v 0 c -0.04077,-0.847481 -0.08082,-1.695005 -0.126754,-2.542228 0,0 -0.792488,0.0066 -0.792488,0.0066 z"
         inkscape:export-xdpi="600"
         inkscape:export-ydpi="600" />
      <path
         style="fill:#aad400;stroke-width:5.56501;stroke-linecap:round;paint-order:markers fill stroke"
         id="path2616"
         d="m 163.72361,59.010139 c 0.0454,0.521377 0.0652,1.044496 0.0855,1.567299 0,0 0.78234,-0.0032 0.78234,-0.0032 v 0 c -0.0221,-0.523536 -0.0429,-1.047234 -0.0762,-1.570204 0,0 -0.79172,0.0061 -0.79172,0.0061 z"
         inkscape:export-xdpi="600"
         inkscape:export-ydpi="600" />
      <path
         style="fill:#aad400;stroke-width:5.56501;stroke-linecap:round;paint-order:markers fill stroke"
         id="path2618"
         d="m 106.94566,58.643403 c 0.12107,0.786892 0.27049,1.56882 0.42799,2.349082 0,0 0.76863,-0.01535 0.76863,-0.01535 v 0 c -0.1577,-0.777462 -0.30567,-1.556933 -0.40657,-2.344206 0,0 -0.79005,0.01048 -0.79005,0.01048 z"
         inkscape:export-xdpi="600"
         inkscape:export-ydpi="600" />
      <text
         xml:space="preserve"
         style="font-style:normal;font-weight:normal;font-size:10.5833px;line-height:1.25;font-family:sans-serif;letter-spacing:0px;word-spacing:0px;fill:#000000;fill-opacity:1;stroke:none;stroke-width:0.264583"
         x="37.685001"
         y="67.485558"
         id="text2632"
         inkscape:export-xdpi="600"
         inkscape:export-ydpi="600"><tspan
           sodipodi:role="line"
           id="tspan2630"
           x="37.685001"
           y="67.485558"
           style="font-style:normal;font-variant:normal;font-weight:normal;font-stretch:normal;font-size:6.35px;font-family:sans-serif;-inkscape-font-specification:'sans-serif, Normal';font-variant-ligatures:normal;font-variant-caps:normal;font-variant-numeric:normal;font-variant-east-asian:normal;stroke-width:0.264583">low income</tspan></text>
      <text
         xml:space="preserve"
         style="font-style:normal;font-weight:normal;font-size:10.5833px;line-height:1.25;font-family:sans-serif;letter-spacing:0px;word-spacing:0px;fill:#000000;fill-opacity:1;stroke:none;stroke-width:0.264583"
         x="85.035538"
         y="67.485558"
         id="text2632-0"
         inkscape:export-xdpi="600"
         inkscape:export-ydpi="600"><tspan
           sodipodi:role="line"
           id="tspan2630-2"
           x="85.035538"
           y="67.485558"
           style="font-style:normal;font-variant:normal;font-weight:normal;font-stretch:normal;font-size:6.35px;font-family:sans-serif;-inkscape-font-specification:'sans-serif, Normal';font-variant-ligatures:normal;font-variant-caps:normal;font-variant-numeric:normal;font-variant-east-asian:normal;stroke-width:0.264583">middle income</tspan></text>
      <text
         xml:space="preserve"
         style="font-style:normal;font-weight:normal;font-size:10.5833px;line-height:1.25;font-family:sans-serif;letter-spacing:0px;word-spacing:0px;fill:#000000;fill-opacity:1;stroke:none;stroke-width:0.264583"
         x="144.91487"
         y="67.485558"
         id="text2632-0-5"
         inkscape:export-xdpi="600"
         inkscape:export-ydpi="600"><tspan
           sodipodi:role="line"
           id="tspan2630-2-2"
           x="144.91487"
           y="67.485558"
           style="font-style:normal;font-variant:normal;font-weight:normal;font-stretch:normal;font-size:6.35px;font-family:sans-serif;-inkscape-font-specification:'sans-serif, Normal';font-variant-ligatures:normal;font-variant-caps:normal;font-variant-numeric:normal;font-variant-east-asian:normal;stroke-width:0.264583">high income</tspan></text>
    </g>
    <path
       style="fill:#4d4d4d;stroke-width:5.56501;stroke-linecap:round;paint-order:markers fill stroke"
       id="path2610-3"
       d="m 38.940262,71.033967 c 1.495541,0.267094 2.986712,0.527376 4.498983,0.681561 2.182558,0.160163 4.371366,0.235316 6.558363,0.312428 2.99316,0.09472 5.98831,0.09402 8.98265,0.09903 4.23489,0.0404 8.46887,0.15598 12.70171,0.290785 4.30368,0.155001 8.60956,0.21644 12.91559,0.253968 5.51787,-0.0071 11.03365,0.153863 16.550452,0.242922 7.7195,0.104108 15.43974,0.123555 23.15981,0.142079 8.19763,0.01156 16.39527,0.0073 24.5929,0.0044 5.88217,-0.0059 11.76434,-7.93e-4 17.6465,0.01032 0,0 -2.00758,-0.317952 -2.00758,-0.317952 v 0 c -5.83165,0.01236 -11.66332,0.0182 -17.49498,0.01368 -6.95049,-0.0011 -13.90099,-7.94e-4 -20.85148,-0.0087 -7.71022,-0.01138 -15.42071,-0.03126 -23.13024,-0.143883 -5.476092,-0.09319 -10.950832,-0.270444 -16.428112,-0.263808 -4.30606,-0.03435 -8.61206,-0.09471 -12.91577,-0.24901 -4.22611,-0.135753 -8.45339,-0.250767 -12.68147,-0.300117 -2.97001,-0.0105 -5.9407,-0.01259 -8.90962,-0.103479 -2.18167,-0.07644 -4.364587,-0.155403 -6.542675,-0.300873 -1.488851,-0.14342 -2.956082,-0.388829 -4.423266,-0.674415 0,0 -2.221765,0.311046 -2.221765,0.311046 z"
       inkscape:export-xdpi="600"
       inkscape:export-ydpi="600"
       inkscape:export-filename="/Users/vdunbar/OneDrive - UBC/Instruction/COHR/2021_Fall/images/ordinal-1.png" />
    <path
       style="fill:#4d4d4d;stroke-width:5.56501;stroke-linecap:round;paint-order:markers fill stroke"
       id="path2614-8"
       d="m 47.228744,70.204681 c 0.071,0.845254 0.11428,1.692267 0.15599,2.539346 0,0 0.763244,-0.0037 0.763244,-0.0037 v 0 c -0.0408,-0.847481 -0.0808,-1.695005 -0.12676,-2.542228 0,0 -0.792474,0.0066 -0.792474,0.0066 z"
       inkscape:export-xdpi="600"
       inkscape:export-ydpi="600"
       inkscape:export-filename="/Users/vdunbar/OneDrive - UBC/Instruction/COHR/2021_Fall/images/ordinal-1.png" />
    <path
       style="fill:#4d4d4d;stroke-width:5.56501;stroke-linecap:round;paint-order:markers fill stroke"
       id="path2616-0"
       d="m 158.54687,71.824026 c 0.0454,0.521377 0.0652,1.044496 0.0855,1.567299 0,0 0.78234,-0.0032 0.78234,-0.0032 v 0 c -0.0221,-0.523536 -0.0429,-1.047234 -0.0762,-1.570204 0,0 -0.79172,0.0061 -0.79172,0.0061 z"
       inkscape:export-xdpi="600"
       inkscape:export-ydpi="600"
       inkscape:export-filename="/Users/vdunbar/OneDrive - UBC/Instruction/COHR/2021_Fall/images/ordinal-1.png" />
    <path
       style="fill:#4d4d4d;stroke-width:5.56501;stroke-linecap:round;paint-order:markers fill stroke"
       id="path2618-2"
       d="m 101.76892,71.45729 c 0.12107,0.786892 0.27049,1.56882 0.42799,2.349082 0,0 0.76863,-0.01535 0.76863,-0.01535 v 0 c -0.1577,-0.777462 -0.30567,-1.556933 -0.40657,-2.344206 0,0 -0.79005,0.01048 -0.79005,0.01048 z"
       inkscape:export-xdpi="600"
       inkscape:export-ydpi="600"
       inkscape:export-filename="/Users/vdunbar/OneDrive - UBC/Instruction/COHR/2021_Fall/images/ordinal-1.png" />
    <text
       xml:space="preserve"
       style="font-style:normal;font-weight:normal;font-size:10.5833px;line-height:1.25;font-family:sans-serif;letter-spacing:0px;word-spacing:0px;fill:#4d4d4d;fill-opacity:1;stroke:none;stroke-width:0.264583"
       x="85.427826"
       y="82.704865"
       id="text2632-4"
       inkscape:export-xdpi="600"
       inkscape:export-ydpi="600"
       inkscape:export-filename="/Users/vdunbar/OneDrive - UBC/Instruction/COHR/2021_Fall/images/ordinal-1.png"><tspan
         sodipodi:role="line"
         id="tspan2630-8"
         x="85.427826"
         y="82.704865"
         style="font-style:normal;font-variant:normal;font-weight:normal;font-stretch:normal;font-size:6.35px;font-family:sans-serif;-inkscape-font-specification:'sans-serif, Normal';font-variant-ligatures:normal;font-variant-caps:normal;font-variant-numeric:normal;font-variant-east-asian:normal;stroke-width:0.264583;fill:#4d4d4d">low income</tspan></text>
    <text
       xml:space="preserve"
       style="font-style:normal;font-weight:normal;font-size:10.5833px;line-height:1.25;font-family:sans-serif;letter-spacing:0px;word-spacing:0px;fill:#4d4d4d;fill-opacity:1;stroke:none;stroke-width:0.264583"
       x="134.38234"
       y="82.437599"
       id="text2632-0-3"
       inkscape:export-xdpi="600"
       inkscape:export-ydpi="600"
       inkscape:export-filename="/Users/vdunbar/OneDrive - UBC/Instruction/COHR/2021_Fall/images/ordinal-1.png"><tspan
         sodipodi:role="line"
         id="tspan2630-2-9"
         x="134.38234"
         y="82.437599"
         style="font-style:normal;font-variant:normal;font-weight:normal;font-stretch:normal;font-size:6.35px;font-family:sans-serif;-inkscape-font-specification:'sans-serif, Normal';font-variant-ligatures:normal;font-variant-caps:normal;font-variant-numeric:normal;font-variant-east-asian:normal;stroke-width:0.264583;fill:#4d4d4d">middle income</tspan></text>
    <text
       xml:space="preserve"
       style="font-style:normal;font-weight:normal;font-size:10.5833px;line-height:1.25;font-family:sans-serif;letter-spacing:0px;word-spacing:0px;fill:#4d4d4d;fill-opacity:1;stroke:none;stroke-width:0.264583"
       x="32.029076"
       y="81.635788"
       id="text2632-0-5-0"
       inkscape:export-xdpi="600"
       inkscape:export-ydpi="600"
       inkscape:export-filename="/Users/vdunbar/OneDrive - UBC/Instruction/COHR/2021_Fall/images/ordinal-1.png"><tspan
         sodipodi:role="line"
         id="tspan2630-2-2-5"
         x="32.029076"
         y="81.635788"
         style="font-style:normal;font-variant:normal;font-weight:normal;font-stretch:normal;font-size:6.35px;font-family:sans-serif;-inkscape-font-specification:'sans-serif, Normal';font-variant-ligatures:normal;font-variant-caps:normal;font-variant-numeric:normal;font-variant-east-asian:normal;stroke-width:0.264583;fill:#4d4d4d">high income</tspan></text>
    <g
       id="g1128"
       transform="translate(0.05658358)"
       inkscape:export-filename="/Users/vdunbar/OneDrive - UBC/Instruction/COHR/2021_Fall/images/nominal-1.png"
       inkscape:export-xdpi="678.9787"
       inkscape:export-ydpi="678.9787">
      <path
         style="fill:#00abd4;fill-opacity:0.533333;stroke-width:5.56501;stroke-linecap:round;paint-order:markers fill stroke"
         id="path2610-5"
         d="m 45.910634,112.09987 c 1.495546,0.2671 2.98673,0.52738 4.499006,0.68157 2.182572,0.16016 4.371393,0.23531 6.558394,0.31242 2.993162,0.0947 5.988312,0.094 8.982649,0.099 4.234892,0.0404 8.468876,0.15599 12.701709,0.29079 4.303681,0.155 8.609563,0.21644 12.915593,0.25397 5.517867,-0.007 11.033655,0.15387 16.550455,0.24293 7.7195,0.1041 15.43974,0.12355 23.15981,0.14207 8.19763,0.0116 16.39527,0.007 24.5929,0.004 5.88217,-0.006 11.76434,-7.9e-4 17.6465,0.0103 0,0 -2.00758,-0.31795 -2.00758,-0.31795 v 0 c -5.83165,0.0124 -11.66332,0.0182 -17.49498,0.0137 -6.95049,-10e-4 -13.90099,-7.9e-4 -20.85148,-0.009 -7.71022,-0.0114 -15.42071,-0.0313 -23.13024,-0.14388 -5.47609,-0.0932 -10.95084,-0.27045 -16.428115,-0.26381 -4.306064,-0.0344 -8.612057,-0.0947 -12.915767,-0.24901 -4.226118,-0.13576 -8.453395,-0.25077 -12.681474,-0.30012 -2.970011,-0.0105 -5.9407,-0.0126 -8.909619,-0.10348 -2.181666,-0.0764 -4.364587,-0.15541 -6.542688,-0.30088 -1.488868,-0.14342 -2.956107,-0.38883 -4.423293,-0.67441 0,0 -2.22178,0.31104 -2.22178,0.31104 z"
         inkscape:export-xdpi="678.9787"
         inkscape:export-ydpi="678.9787" />
      <path
         style="fill:#00abd4;fill-opacity:0.533333;stroke-width:5.56501;stroke-linecap:round;paint-order:markers fill stroke"
         id="path2614-3"
         d="m 51.123398,110.89489 c 0.07095,0.84526 0.114287,1.69227 0.155994,2.53936 0,0 0.763248,-0.004 0.763248,-0.004 v 0 c -0.04077,-0.84749 -0.08082,-1.69502 -0.126754,-2.54224 0,0 -0.792488,0.007 -0.792488,0.007 z"
         inkscape:export-xdpi="678.9787"
         inkscape:export-ydpi="678.9787" />
      <path
         style="fill:#00abd4;fill-opacity:0.533333;stroke-width:5.56501;stroke-linecap:round;paint-order:markers fill stroke"
         id="path2614-3-0"
         d="m 166.71747,112.49851 c 0.071,0.84526 0.11429,1.69228 0.15599,2.53937 0,0 0.76325,-0.004 0.76325,-0.004 v 0 c -0.0408,-0.84749 -0.0808,-1.69502 -0.12675,-2.54225 0,0 -0.79249,0.007 -0.79249,0.007 z"
         inkscape:export-xdpi="678.9787"
         inkscape:export-ydpi="678.9787" />
      <path
         style="fill:#00abd4;fill-opacity:0.533333;stroke-width:5.56501;stroke-linecap:round;paint-order:markers fill stroke"
         id="path2614-3-0-1"
         d="m 108.45271,112.36488 c 0.071,0.84526 0.11429,1.69227 0.15599,2.53936 0,0 0.76325,-0.004 0.76325,-0.004 v 0 c -0.0408,-0.84749 -0.0808,-1.69502 -0.12675,-2.54224 0,0 -0.79249,0.007 -0.79249,0.007 z"
         inkscape:export-xdpi="678.9787"
         inkscape:export-ydpi="678.9787" />
      <path
         style="fill:#00abd4;fill-opacity:0.533333;stroke-width:5.56501;stroke-linecap:round;paint-order:markers fill stroke"
         id="path2614-3-0-1-6"
         d="m 81.324855,112.23124 c 0.071,0.84526 0.11429,1.69228 0.15599,2.53936 0,0 0.76325,-0.004 0.76325,-0.004 v 0 c -0.0408,-0.84748 -0.0808,-1.69501 -0.12675,-2.54224 0,0 -0.79249,0.007 -0.79249,0.007 z"
         inkscape:export-xdpi="678.9787"
         inkscape:export-ydpi="678.9787" />
      <path
         style="fill:#00abd4;fill-opacity:0.533333;stroke-width:5.56501;stroke-linecap:round;paint-order:markers fill stroke"
         id="path2614-3-0-1-6-1"
         d="m 139.05507,112.89942 c 0.071,0.84526 0.11429,1.69228 0.15599,2.53936 0,0 0.76325,-0.004 0.76325,-0.004 v 0 c -0.0408,-0.84749 -0.0808,-1.69502 -0.12675,-2.54224 0,0 -0.79249,0.007 -0.79249,0.007 z"
         inkscape:export-xdpi="678.9787"
         inkscape:export-ydpi="678.9787" />
      <text
         xml:space="preserve"
         style="font-style:normal;font-weight:normal;font-size:10.5833px;line-height:1.25;font-family:sans-serif;letter-spacing:0px;word-spacing:0px;fill:#000000;fill-opacity:1;stroke:none;stroke-width:0.264583"
         x="45.153294"
         y="121.34386"
         id="text2632-5"
         inkscape:export-xdpi="678.9787"
         inkscape:export-ydpi="678.9787"><tspan
           sodipodi:role="line"
           id="tspan2630-9"
           x="45.153294"
           y="121.34386"
           style="font-style:normal;font-variant:normal;font-weight:normal;font-stretch:normal;font-size:6.35px;font-family:sans-serif;-inkscape-font-specification:'sans-serif, Normal';font-variant-ligatures:normal;font-variant-caps:normal;font-variant-numeric:normal;font-variant-east-asian:normal;stroke-width:0.264583">blue</tspan></text>
      <text
         xml:space="preserve"
         style="font-style:normal;font-weight:normal;font-size:10.5833px;line-height:1.25;font-family:sans-serif;letter-spacing:0px;word-spacing:0px;fill:#000000;fill-opacity:1;stroke:none;stroke-width:0.264583"
         x="72.797432"
         y="121.34386"
         id="text2632-5-9"
         inkscape:export-xdpi="678.9787"
         inkscape:export-ydpi="678.9787"><tspan
           sodipodi:role="line"
           id="tspan2630-9-9"
           x="72.797432"
           y="121.34386"
           style="font-style:normal;font-variant:normal;font-weight:normal;font-stretch:normal;font-size:6.35px;font-family:sans-serif;-inkscape-font-specification:'sans-serif, Normal';font-variant-ligatures:normal;font-variant-caps:normal;font-variant-numeric:normal;font-variant-east-asian:normal;stroke-width:0.264583">hazel</tspan><tspan
           sodipodi:role="line"
           x="72.797432"
           y="134.57298"
           style="font-style:normal;font-variant:normal;font-weight:normal;font-stretch:normal;font-size:6.35px;font-family:sans-serif;-inkscape-font-specification:'sans-serif, Normal';font-variant-ligatures:normal;font-variant-caps:normal;font-variant-numeric:normal;font-variant-east-asian:normal;stroke-width:0.264583"
           id="tspan3553" /></text>
      <text
         xml:space="preserve"
         style="font-style:normal;font-weight:normal;font-size:10.5833px;line-height:1.25;font-family:sans-serif;letter-spacing:0px;word-spacing:0px;fill:#000000;fill-opacity:1;stroke:none;stroke-width:0.264583"
         x="99.125336"
         y="121.34386"
         id="text2632-5-9-8"
         inkscape:export-xdpi="678.9787"
         inkscape:export-ydpi="678.9787"><tspan
           sodipodi:role="line"
           x="99.125336"
           y="121.34386"
           style="font-style:normal;font-variant:normal;font-weight:normal;font-stretch:normal;font-size:6.35px;font-family:sans-serif;-inkscape-font-specification:'sans-serif, Normal';font-variant-ligatures:normal;font-variant-caps:normal;font-variant-numeric:normal;font-variant-east-asian:normal;stroke-width:0.264583"
           id="tspan3553-3">brown</tspan></text>
      <text
         xml:space="preserve"
         style="font-style:normal;font-weight:normal;font-size:10.5833px;line-height:1.25;font-family:sans-serif;letter-spacing:0px;word-spacing:0px;fill:#000000;fill-opacity:1;stroke:none;stroke-width:0.264583"
         x="131.00304"
         y="120.07574"
         id="text2632-5-9-8-5"
         inkscape:export-xdpi="678.9787"
         inkscape:export-ydpi="678.9787"><tspan
           sodipodi:role="line"
           x="131.00304"
           y="120.07574"
           style="font-style:normal;font-variant:normal;font-weight:normal;font-stretch:normal;font-size:6.35px;font-family:sans-serif;-inkscape-font-specification:'sans-serif, Normal';font-variant-ligatures:normal;font-variant-caps:normal;font-variant-numeric:normal;font-variant-east-asian:normal;stroke-width:0.264583"
           id="tspan3553-3-2">green</tspan></text>
      <text
         xml:space="preserve"
         style="font-style:normal;font-weight:normal;font-size:10.5833px;line-height:1.25;font-family:sans-serif;letter-spacing:0px;word-spacing:0px;fill:#000000;fill-opacity:1;stroke:none;stroke-width:0.264583"
         x="160.2529"
         y="120.07574"
         id="text2632-5-9-8-0"
         inkscape:export-xdpi="678.9787"
         inkscape:export-ydpi="678.9787"><tspan
           sodipodi:role="line"
           x="160.2529"
           y="120.07574"
           style="font-style:normal;font-variant:normal;font-weight:normal;font-stretch:normal;font-size:6.35px;font-family:sans-serif;-inkscape-font-specification:'sans-serif, Normal';font-variant-ligatures:normal;font-variant-caps:normal;font-variant-numeric:normal;font-variant-east-asian:normal;stroke-width:0.264583"
           id="tspan3553-3-1">grey</tspan><tspan
           sodipodi:role="line"
           x="160.2529"
           y="133.30486"
           style="font-style:normal;font-variant:normal;font-weight:normal;font-stretch:normal;font-size:6.35px;font-family:sans-serif;-inkscape-font-specification:'sans-serif, Normal';font-variant-ligatures:normal;font-variant-caps:normal;font-variant-numeric:normal;font-variant-east-asian:normal;stroke-width:0.264583"
           id="tspan3621" /></text>
    </g>
    <path
       style="fill:#333333;fill-opacity:0.533333;stroke-width:5.56501;stroke-linecap:round;paint-order:markers fill stroke"
       id="path2610-5-3"
       d="m 45.967218,130.62361 c 1.495546,0.2671 2.98673,0.52738 4.499006,0.68157 2.182572,0.16016 4.371393,0.23531 6.558394,0.31242 2.993162,0.0947 5.988312,0.094 8.982649,0.099 4.234892,0.0404 8.468876,0.15599 12.701709,0.29079 4.303681,0.155 8.609563,0.21644 12.915593,0.25397 5.517867,-0.007 11.033651,0.15387 16.550451,0.24293 7.7195,0.1041 15.43974,0.12355 23.15981,0.14207 8.19763,0.0116 16.39527,0.007 24.5929,0.004 5.88217,-0.006 11.76434,-7.9e-4 17.6465,0.0103 0,0 -2.00758,-0.31795 -2.00758,-0.31795 v 0 c -5.83165,0.0124 -11.66332,0.0182 -17.49498,0.0137 -6.95049,-0.001 -13.90099,-7.9e-4 -20.85148,-0.009 -7.71022,-0.0114 -15.42071,-0.0313 -23.13024,-0.14388 -5.47609,-0.0932 -10.950836,-0.27044 -16.428111,-0.26381 -4.306064,-0.0344 -8.612057,-0.0947 -12.915767,-0.24901 -4.226118,-0.13576 -8.453395,-0.25076 -12.681474,-0.30012 -2.970011,-0.0105 -5.9407,-0.0126 -8.909619,-0.10348 -2.181666,-0.0764 -4.364587,-0.15541 -6.542688,-0.30088 -1.488868,-0.14342 -2.956107,-0.38883 -4.423293,-0.67441 0,0 -2.22178,0.31104 -2.22178,0.31104 z"
       inkscape:export-xdpi="678.9787"
       inkscape:export-ydpi="678.9787"
       inkscape:export-filename="/Users/vdunbar/OneDrive - UBC/Instruction/COHR/2021_Fall/images/nominal-1.png" />
    <path
       style="fill:#333333;fill-opacity:0.533333;stroke-width:5.56501;stroke-linecap:round;paint-order:markers fill stroke"
       id="path2614-3-7"
       d="m 51.179982,129.41864 c 0.07095,0.84525 0.114287,1.69226 0.155994,2.53935 0,0 0.763248,-0.004 0.763248,-0.004 v 0 c -0.04077,-0.84748 -0.08082,-1.69502 -0.126754,-2.54224 0,0 -0.792488,0.007 -0.792488,0.007 z"
       inkscape:export-xdpi="678.9787"
       inkscape:export-ydpi="678.9787"
       inkscape:export-filename="/Users/vdunbar/OneDrive - UBC/Instruction/COHR/2021_Fall/images/nominal-1.png" />
    <path
       style="fill:#333333;fill-opacity:0.533333;stroke-width:5.56501;stroke-linecap:round;paint-order:markers fill stroke"
       id="path2614-3-0-9"
       d="m 166.77405,131.02225 c 0.071,0.84526 0.11429,1.69228 0.15599,2.53937 0,0 0.76325,-0.004 0.76325,-0.004 v 0 c -0.0408,-0.84749 -0.0808,-1.69502 -0.12675,-2.54225 0,0 -0.79249,0.007 -0.79249,0.007 z"
       inkscape:export-xdpi="678.9787"
       inkscape:export-ydpi="678.9787"
       inkscape:export-filename="/Users/vdunbar/OneDrive - UBC/Instruction/COHR/2021_Fall/images/nominal-1.png" />
    <path
       style="fill:#333333;fill-opacity:0.533333;stroke-width:5.56501;stroke-linecap:round;paint-order:markers fill stroke"
       id="path2614-3-0-1-0"
       d="m 108.50929,130.88862 c 0.071,0.84526 0.11429,1.69227 0.15599,2.53936 0,0 0.76325,-0.004 0.76325,-0.004 v 0 c -0.0408,-0.84748 -0.0808,-1.69502 -0.12675,-2.54224 0,0 -0.79249,0.007 -0.79249,0.007 z"
       inkscape:export-xdpi="678.9787"
       inkscape:export-ydpi="678.9787"
       inkscape:export-filename="/Users/vdunbar/OneDrive - UBC/Instruction/COHR/2021_Fall/images/nominal-1.png" />
    <path
       style="fill:#333333;fill-opacity:0.533333;stroke-width:5.56501;stroke-linecap:round;paint-order:markers fill stroke"
       id="path2614-3-0-1-6-2"
       d="m 81.381439,130.75498 c 0.071,0.84526 0.11429,1.69228 0.15599,2.53936 0,0 0.76325,-0.004 0.76325,-0.004 v 0 c -0.0408,-0.84748 -0.0808,-1.69501 -0.12675,-2.54224 0,0 -0.79249,0.007 -0.79249,0.007 z"
       inkscape:export-xdpi="678.9787"
       inkscape:export-ydpi="678.9787"
       inkscape:export-filename="/Users/vdunbar/OneDrive - UBC/Instruction/COHR/2021_Fall/images/nominal-1.png" />
    <path
       style="fill:#333333;fill-opacity:0.533333;stroke-width:5.56501;stroke-linecap:round;paint-order:markers fill stroke"
       id="path2614-3-0-1-6-1-3"
       d="m 139.11165,131.42316 c 0.071,0.84526 0.11429,1.69229 0.15599,2.53937 0,0 0.76325,-0.004 0.76325,-0.004 v 0 c -0.0408,-0.84749 -0.0808,-1.69502 -0.12675,-2.54224 0,0 -0.79249,0.007 -0.79249,0.007 z"
       inkscape:export-xdpi="678.9787"
       inkscape:export-ydpi="678.9787"
       inkscape:export-filename="/Users/vdunbar/OneDrive - UBC/Instruction/COHR/2021_Fall/images/nominal-1.png" />
    <text
       xml:space="preserve"
       style="font-style:normal;font-weight:normal;font-size:10.5833px;line-height:1.25;font-family:sans-serif;letter-spacing:0px;word-spacing:0px;fill:#333333;fill-opacity:1;stroke:none;stroke-width:0.264583"
       x="160.6703"
       y="140.41133"
       id="text2632-5-99"
       inkscape:export-xdpi="678.9787"
       inkscape:export-ydpi="678.9787"
       inkscape:export-filename="/Users/vdunbar/OneDrive - UBC/Instruction/COHR/2021_Fall/images/nominal-1.png"><tspan
         sodipodi:role="line"
         id="tspan2630-9-7"
         x="160.6703"
         y="140.41133"
         style="font-style:normal;font-variant:normal;font-weight:normal;font-stretch:normal;font-size:6.35px;font-family:sans-serif;-inkscape-font-specification:'sans-serif, Normal';font-variant-ligatures:normal;font-variant-caps:normal;font-variant-numeric:normal;font-variant-east-asian:normal;stroke-width:0.264583;fill:#333333">blue</tspan></text>
    <text
       xml:space="preserve"
       style="font-style:normal;font-weight:normal;font-size:10.5833px;line-height:1.25;font-family:sans-serif;letter-spacing:0px;word-spacing:0px;fill:#333333;fill-opacity:1;stroke:none;stroke-width:0.264583"
       x="131.65332"
       y="140.41133"
       id="text2632-5-9-0"
       inkscape:export-xdpi="678.9787"
       inkscape:export-ydpi="678.9787"
       inkscape:export-filename="/Users/vdunbar/OneDrive - UBC/Instruction/COHR/2021_Fall/images/nominal-1.png"><tspan
         sodipodi:role="line"
         id="tspan2630-9-9-3"
         x="131.65332"
         y="140.41133"
         style="font-style:normal;font-variant:normal;font-weight:normal;font-stretch:normal;font-size:6.35px;font-family:sans-serif;-inkscape-font-specification:'sans-serif, Normal';font-variant-ligatures:normal;font-variant-caps:normal;font-variant-numeric:normal;font-variant-east-asian:normal;stroke-width:0.264583;fill:#333333">hazel</tspan><tspan
         sodipodi:role="line"
         x="131.65332"
         y="153.64046"
         style="font-style:normal;font-variant:normal;font-weight:normal;font-stretch:normal;font-size:6.35px;font-family:sans-serif;-inkscape-font-specification:'sans-serif, Normal';font-variant-ligatures:normal;font-variant-caps:normal;font-variant-numeric:normal;font-variant-east-asian:normal;stroke-width:0.264583;fill:#333333"
         id="tspan3553-9" /></text>
    <text
       xml:space="preserve"
       style="font-style:normal;font-weight:normal;font-size:10.5833px;line-height:1.25;font-family:sans-serif;letter-spacing:0px;word-spacing:0px;fill:#333333;fill-opacity:1;stroke:none;stroke-width:0.264583"
       x="71.385895"
       y="140.41133"
       id="text2632-5-9-8-8"
       inkscape:export-xdpi="678.9787"
       inkscape:export-ydpi="678.9787"
       inkscape:export-filename="/Users/vdunbar/OneDrive - UBC/Instruction/COHR/2021_Fall/images/nominal-1.png"><tspan
         sodipodi:role="line"
         x="71.385895"
         y="140.41133"
         style="font-style:normal;font-variant:normal;font-weight:normal;font-stretch:normal;font-size:6.35px;font-family:sans-serif;-inkscape-font-specification:'sans-serif, Normal';font-variant-ligatures:normal;font-variant-caps:normal;font-variant-numeric:normal;font-variant-east-asian:normal;stroke-width:0.264583;fill:#333333"
         id="tspan3553-3-6">brown</tspan></text>
    <text
       xml:space="preserve"
       style="font-style:normal;font-weight:normal;font-size:10.5833px;line-height:1.25;font-family:sans-serif;letter-spacing:0px;word-spacing:0px;fill:#333333;fill-opacity:1;stroke:none;stroke-width:0.264583"
       x="43.39521"
       y="139.1711"
       id="text2632-5-9-8-5-5"
       inkscape:export-xdpi="678.9787"
       inkscape:export-ydpi="678.9787"
       inkscape:export-filename="/Users/vdunbar/OneDrive - UBC/Instruction/COHR/2021_Fall/images/nominal-1.png"><tspan
         sodipodi:role="line"
         x="43.39521"
         y="139.1711"
         style="font-style:normal;font-variant:normal;font-weight:normal;font-stretch:normal;font-size:6.35px;font-family:sans-serif;-inkscape-font-specification:'sans-serif, Normal';font-variant-ligatures:normal;font-variant-caps:normal;font-variant-numeric:normal;font-variant-east-asian:normal;stroke-width:0.264583;fill:#333333"
         id="tspan3553-3-2-7">green</tspan></text>
    <text
       xml:space="preserve"
       style="font-style:normal;font-weight:normal;font-size:10.5833px;line-height:1.25;font-family:sans-serif;letter-spacing:0px;word-spacing:0px;fill:#333333;fill-opacity:1;stroke:none;stroke-width:0.264583"
       x="103.1138"
       y="139.1711"
       id="text2632-5-9-8-0-6"
       inkscape:export-xdpi="678.9787"
       inkscape:export-ydpi="678.9787"
       inkscape:export-filename="/Users/vdunbar/OneDrive - UBC/Instruction/COHR/2021_Fall/images/nominal-1.png"><tspan
         sodipodi:role="line"
         x="103.1138"
         y="139.1711"
         style="font-style:normal;font-variant:normal;font-weight:normal;font-stretch:normal;font-size:6.35px;font-family:sans-serif;-inkscape-font-specification:'sans-serif, Normal';font-variant-ligatures:normal;font-variant-caps:normal;font-variant-numeric:normal;font-variant-east-asian:normal;stroke-width:0.264583;fill:#333333"
         id="tspan3553-3-1-2">grey</tspan><tspan
         sodipodi:role="line"
         x="103.1138"
         y="152.40022"
         style="font-style:normal;font-variant:normal;font-weight:normal;font-stretch:normal;font-size:6.35px;font-family:sans-serif;-inkscape-font-specification:'sans-serif, Normal';font-variant-ligatures:normal;font-variant-caps:normal;font-variant-numeric:normal;font-variant-east-asian:normal;stroke-width:0.264583;fill:#333333"
         id="tspan3621-7" /></text>
  </g>
</svg>
