<?xml version="1.0" encoding="UTF-8" standalone="no"?>
<svg
   xmlns:dc="http://purl.org/dc/elements/1.1/"
   xmlns:cc="http://creativecommons.org/ns#"
   xmlns:rdf="http://www.w3.org/1999/02/22-rdf-syntax-ns#"
   xmlns:svg="http://www.w3.org/2000/svg"
   xmlns="http://www.w3.org/2000/svg"
   xmlns:sodipodi="http://sodipodi.sourceforge.net/DTD/sodipodi-0.dtd"
   xmlns:inkscape="http://www.inkscape.org/namespaces/inkscape"
   width="210mm"
   height="297mm"
   viewBox="0 0 210 297"
   version="1.1"
   id="svg8"
   inkscape:version="1.0.2 (e86c870879, 2021-01-15, custom)"
   sodipodi:docname="dataTypes.svg">
  <defs
     id="defs2" />
  <sodipodi:namedview
     id="base"
     pagecolor="#ffffff"
     bordercolor="#666666"
     borderopacity="1.0"
     inkscape:pageopacity="0.0"
     inkscape:pageshadow="2"
     inkscape:zoom="1.979899"
     inkscape:cx="360.02922"
     inkscape:cy="268.13912"
     inkscape:document-units="mm"
     inkscape:current-layer="layer1"
     inkscape:document-rotation="0"
     showgrid="false"
     inkscape:window-width="2560"
     inkscape:window-height="1411"
     inkscape:window-x="-9"
     inkscape:window-y="-9"
     inkscape:window-maximized="1" />
  <metadata
     id="metadata5">
    <rdf:RDF>
      <cc:Work
         rdf:about="">
        <dc:format>image/svg+xml</dc:format>
        <dc:type
           rdf:resource="http://purl.org/dc/dcmitype/StillImage" />
        <dc:title></dc:title>
      </cc:Work>
    </rdf:RDF>
  </metadata>
  <g
     inkscape:label="Layer 1"
     inkscape:groupmode="layer"
     id="layer1">
    <path
       style="fill:#ff2a2a;stroke-width:5.56501;stroke-linecap:round;paint-order:markers fill stroke;fill-opacity:1"
       id="path839"
       d="m 88.752878,22.894947 c 0.516337,0.05438 1.087943,0.120629 1.590757,0.123986 2.422991,0.01619 3.828455,-0.183417 6.478603,-0.514696 3.755842,-0.469498 8.156942,-1.160069 11.880762,-1.722419 8.36014,-1.290511 4.28679,-0.662006 12.22004,-1.885596 0,0 0.41454,-0.311062 0.41454,-0.311062 v 0 c -7.95294,1.246534 -3.87506,0.613769 -12.23393,1.896348 -3.92156,0.58516 -7.86395,1.20732 -11.803773,1.668256 -2.468525,0.288803 -4.040825,0.477898 -6.347811,0.433985 -0.526402,-0.01003 -1.036889,-0.08268 -1.555099,-0.149249 0,0 -0.644089,0.460447 -0.644089,0.460447 z"
       inkscape:export-xdpi="600"
       inkscape:export-ydpi="600" />
    <path
       style="fill:#ff2a2a;fill-opacity:1;stroke-width:5.56501;stroke-linecap:round;paint-order:markers fill stroke"
       id="path841"
       d="m 89.303823,23.350062 c 0.242125,0.715947 0.462145,1.319575 0.624043,2.082271 0.153884,0.724926 0.268023,1.457954 0.379648,2.190578 0.3985,2.615438 0.631825,5.246904 0.861732,7.88099 0.154406,1.999922 0.318476,3.998714 0.569391,5.989024 0,0 0.67228,-0.354076 0.67228,-0.354076 v 0 c -0.288509,-1.974186 -0.475072,-3.959993 -0.640418,-5.948059 -0.239417,-2.636604 -0.479806,-5.270597 -0.849882,-7.892983 -0.104492,-0.74045 -0.203591,-1.482421 -0.346183,-2.216486 -0.133266,-0.686054 -0.37614,-1.439619 -0.583885,-2.119816 0,0 -0.686726,0.388557 -0.686726,0.388557 z"
       inkscape:export-xdpi="600"
       inkscape:export-ydpi="600" />
    <path
       style="fill:#ff2a2a;fill-opacity:1;stroke-width:5.56501;stroke-linecap:round;paint-order:markers fill stroke"
       id="path843"
       d="m 90.319701,39.224572 c 0.196027,0.03695 0.389726,0.08971 0.588084,0.110855 3.571438,0.380646 7.180342,0.404995 10.765945,0.331013 5.38295,-0.111065 7.4694,-0.306547 12.89186,-0.655961 2.02829,-0.181504 4.05657,-0.363011 6.08486,-0.544517 0,0 0.40693,-0.301305 0.40693,-0.301305 v 0 c -2.03424,0.186446 -4.06848,0.37289 -6.10272,0.559337 -5.31521,0.336849 -7.56279,0.546748 -12.8387,0.621353 -3.522193,0.0498 -7.072711,-0.01289 -10.573794,-0.452202 -0.192069,-0.0241 -0.379151,-0.0783 -0.568727,-0.117446 0,0 -0.653738,0.448873 -0.653738,0.448873 z"
       inkscape:export-xdpi="600"
       inkscape:export-ydpi="600" />
    <path
       style="fill:#ff2a2a;fill-opacity:1;stroke-width:3.92793;stroke-linecap:round;paint-order:markers fill stroke"
       id="path845"
       d="m 122.11206,20.038052 c 0.0745,0.428611 0.1627,0.856687 0.22347,1.285836 0.25609,1.808424 0.36731,3.180053 0.49355,5.04284 0.19473,2.873609 0.286,5.74846 0.37329,8.623239 0.0504,1.829815 0.0655,3.660077 0.15281,5.489618 0,0 0.68376,-0.175398 0.68376,-0.175398 v 0 c -0.22499,-1.811177 -0.22914,-3.62767 -0.33999,-5.44086 -0.13106,-2.87143 -0.25851,-5.742912 -0.41091,-8.614084 -0.0523,-0.985455 -0.0973,-1.971034 -0.16564,-2.956245 -0.0738,-1.063756 -0.20888,-2.34052 -0.31966,-3.434761 0,0 -0.69068,0.179815 -0.69068,0.179815 z"
       inkscape:export-xdpi="600"
       inkscape:export-ydpi="600" />
    <text
       xml:space="preserve"
       style="font-style:normal;font-variant:normal;font-weight:normal;font-stretch:normal;font-size:10.5833px;line-height:1.25;font-family:'Aboriginal Sans';-inkscape-font-specification:'Aboriginal Sans, Normal';font-variant-ligatures:normal;font-variant-caps:normal;font-variant-numeric:normal;font-variant-east-asian:normal;letter-spacing:0px;word-spacing:0px;fill:#ff2a2a;fill-opacity:1;stroke:none;stroke-width:0.264583;"
       x="95.816124"
       y="34.007694"
       id="text849"
       inkscape:export-xdpi="600"
       inkscape:export-ydpi="600"><tspan
         sodipodi:role="line"
         id="tspan847"
         x="95.816124"
         y="34.007694"
         style="font-style:normal;font-variant:normal;font-weight:normal;font-stretch:normal;font-size:10.5833px;font-family:'Aboriginal Sans';-inkscape-font-specification:'Aboriginal Sans, Normal';font-variant-ligatures:normal;font-variant-caps:normal;font-variant-numeric:normal;font-variant-east-asian:normal;fill:#ff2a2a;stroke-width:0.264583;fill-opacity:1;">Data</tspan></text>
    <path
       style="fill:#aad400;fill-opacity:1;stroke-width:5.56501;stroke-linecap:round;paint-order:markers fill stroke"
       id="path839-1"
       d="m 37.474254,50.367202 c 0.51633,0.05438 1.08794,0.120629 1.59075,0.123986 2.42299,0.01619 3.82846,-0.183417 6.47861,-0.514696 3.75584,-0.469498 8.15694,-1.160069 11.88076,-1.722419 8.36014,-1.290511 4.28679,-0.662006 12.22004,-1.885596 0,0 0.41454,-0.311062 0.41454,-0.311062 v 0 c -7.95294,1.246534 -3.87506,0.613769 -12.23393,1.896348 -3.92156,0.58516 -7.86395,1.20732 -11.80377,1.668256 -2.46853,0.288803 -4.04083,0.477898 -6.34781,0.433985 -0.52641,-0.01003 -1.03689,-0.08268 -1.5551,-0.149249 0,0 -0.64409,0.460447 -0.64409,0.460447 z"
       inkscape:export-xdpi="600"
       inkscape:export-ydpi="600" />
    <path
       style="fill:#aad400;fill-opacity:1;stroke-width:5.56501;stroke-linecap:round;paint-order:markers fill stroke"
       id="path841-4"
       d="m 38.025194,50.822317 c 0.24213,0.715947 0.46215,1.319575 0.62404,2.082271 0.15389,0.724926 0.26803,1.457954 0.37965,2.190578 0.3985,2.615438 0.63183,5.246904 0.86174,7.88099 0.1544,1.999922 0.31847,3.998714 0.56939,5.989024 0,0 0.67228,-0.354076 0.67228,-0.354076 v 0 c -0.28851,-1.974186 -0.47508,-3.959993 -0.64042,-5.948059 -0.23942,-2.636604 -0.47981,-5.270597 -0.84988,-7.892983 -0.1045,-0.74045 -0.20359,-1.482421 -0.34619,-2.216486 -0.13326,-0.686054 -0.37614,-1.439619 -0.58388,-2.119816 0,0 -0.68673,0.388557 -0.68673,0.388557 z"
       inkscape:export-xdpi="600"
       inkscape:export-ydpi="600" />
    <path
       style="fill:#aad400;fill-opacity:1;stroke-width:5.56501;stroke-linecap:round;paint-order:markers fill stroke"
       id="path843-2"
       d="m 39.041074,66.696827 c 0.19603,0.03695 0.38973,0.08971 0.58808,0.110855 3.57144,0.380646 7.18035,0.404995 10.76595,0.331013 5.38295,-0.111065 7.4694,-0.306547 12.89186,-0.655961 2.02829,-0.181504 4.05657,-0.363011 6.08486,-0.544517 0,0 0.40693,-0.301305 0.40693,-0.301305 v 0 c -2.03424,0.186446 -4.06848,0.37289 -6.10272,0.559337 -5.31521,0.336849 -7.56279,0.546748 -12.8387,0.621353 -3.52219,0.0498 -7.07271,-0.01289 -10.5738,-0.452202 -0.19206,-0.0241 -0.37915,-0.0783 -0.56872,-0.117446 0,0 -0.65374,0.448873 -0.65374,0.448873 z"
       inkscape:export-xdpi="600"
       inkscape:export-ydpi="600" />
    <path
       style="fill:#aad400;fill-opacity:1;stroke-width:3.92793;stroke-linecap:round;paint-order:markers fill stroke"
       id="path845-3"
       d="m 70.833434,47.510307 c 0.0745,0.428611 0.1627,0.856687 0.22347,1.285836 0.25609,1.808424 0.36731,3.180053 0.49355,5.04284 0.19473,2.873609 0.286,5.74846 0.37329,8.623239 0.0504,1.829815 0.0655,3.660077 0.15281,5.489618 0,0 0.68376,-0.175398 0.68376,-0.175398 v 0 c -0.22499,-1.811177 -0.22914,-3.62767 -0.33999,-5.44086 -0.13106,-2.87143 -0.25851,-5.742912 -0.41091,-8.614084 -0.0523,-0.985455 -0.0973,-1.971034 -0.16564,-2.956245 -0.0738,-1.063756 -0.20888,-2.34052 -0.31966,-3.434761 0,0 -0.69068,0.179815 -0.69068,0.179815 z"
       inkscape:export-xdpi="600"
       inkscape:export-ydpi="600" />
    <text
       xml:space="preserve"
       style="font-style:normal;font-variant:normal;font-weight:normal;font-stretch:normal;font-size:6.35px;line-height:1.25;font-family:'Aboriginal Sans';-inkscape-font-specification:'Aboriginal Sans, Normal';font-variant-ligatures:normal;font-variant-caps:normal;font-variant-numeric:normal;font-variant-east-asian:normal;letter-spacing:0px;word-spacing:0px;fill:#aad400;fill-opacity:1;stroke:none;stroke-width:0.264583"
       x="40.662075"
       y="60.277237"
       id="text849-9"
       inkscape:export-xdpi="600"
       inkscape:export-ydpi="600"><tspan
         sodipodi:role="line"
         id="tspan847-4"
         x="40.662075"
         y="60.277237"
         style="font-style:normal;font-variant:normal;font-weight:normal;font-stretch:normal;font-size:6.35px;font-family:'Aboriginal Sans';-inkscape-font-specification:'Aboriginal Sans, Normal';font-variant-ligatures:normal;font-variant-caps:normal;font-variant-numeric:normal;font-variant-east-asian:normal;fill:#aad400;fill-opacity:1;stroke-width:0.264583">Categorical</tspan></text>
    <path
       style="fill:#00aad4;fill-opacity:1;stroke-width:5.56501;stroke-linecap:round;paint-order:markers fill stroke"
       id="path839-1-5"
       d="m 135.84366,49.431758 c 0.51633,0.05438 1.08794,0.120629 1.59075,0.123986 2.42299,0.01619 3.82846,-0.183417 6.47861,-0.514696 3.75584,-0.469498 8.15694,-1.160069 11.88076,-1.722419 8.36014,-1.290511 4.28679,-0.662006 12.22004,-1.885596 0,0 0.41454,-0.311062 0.41454,-0.311062 v 0 c -7.95294,1.246534 -3.87506,0.613769 -12.23393,1.896348 -3.92156,0.58516 -7.86395,1.20732 -11.80377,1.668256 -2.46853,0.288803 -4.04083,0.477898 -6.34781,0.433985 -0.52641,-0.01003 -1.03689,-0.08268 -1.5551,-0.149249 0,0 -0.64409,0.460447 -0.64409,0.460447 z"
       inkscape:export-xdpi="600"
       inkscape:export-ydpi="600" />
    <path
       style="fill:#00aad4;fill-opacity:1;stroke-width:5.56501;stroke-linecap:round;paint-order:markers fill stroke"
       id="path841-4-6"
       d="m 136.3946,49.886873 c 0.24213,0.715947 0.46215,1.319575 0.62404,2.082271 0.15389,0.724926 0.26803,1.457954 0.37965,2.190578 0.3985,2.615438 0.63183,5.246904 0.86174,7.88099 0.1544,1.999922 0.31847,3.998714 0.56939,5.989024 0,0 0.67228,-0.354076 0.67228,-0.354076 v 0 c -0.28851,-1.974186 -0.47508,-3.959993 -0.64042,-5.948059 -0.23942,-2.636604 -0.47981,-5.270597 -0.84988,-7.892983 -0.1045,-0.74045 -0.20359,-1.482421 -0.34619,-2.216486 -0.13326,-0.686054 -0.37614,-1.439619 -0.58388,-2.119816 0,0 -0.68673,0.388557 -0.68673,0.388557 z"
       inkscape:export-xdpi="600"
       inkscape:export-ydpi="600" />
    <path
       style="fill:#00aad4;fill-opacity:1;stroke-width:5.56501;stroke-linecap:round;paint-order:markers fill stroke"
       id="path843-2-6"
       d="m 137.41048,65.761383 c 0.19603,0.03695 0.38973,0.08971 0.58808,0.110855 3.57144,0.380646 7.18035,0.404995 10.76595,0.331013 5.38295,-0.111065 7.4694,-0.306547 12.89186,-0.655961 2.02829,-0.181504 4.05657,-0.363011 6.08486,-0.544517 0,0 0.40693,-0.301305 0.40693,-0.301305 v 0 c -2.03424,0.186446 -4.06848,0.37289 -6.10272,0.559337 -5.31521,0.336849 -7.56279,0.546748 -12.8387,0.621353 -3.52219,0.0498 -7.07271,-0.01289 -10.5738,-0.452202 -0.19206,-0.0241 -0.37915,-0.0783 -0.56872,-0.117446 0,0 -0.65374,0.448873 -0.65374,0.448873 z"
       inkscape:export-xdpi="600"
       inkscape:export-ydpi="600" />
    <path
       style="fill:#00aad4;fill-opacity:1;stroke-width:3.92793;stroke-linecap:round;paint-order:markers fill stroke"
       id="path845-3-2"
       d="m 169.20284,46.574863 c 0.0745,0.428611 0.1627,0.856687 0.22347,1.285836 0.25609,1.808424 0.36731,3.180053 0.49355,5.04284 0.19473,2.873609 0.286,5.74846 0.37329,8.623239 0.0504,1.829815 0.0655,3.660077 0.15281,5.489618 0,0 0.68376,-0.175398 0.68376,-0.175398 v 0 c -0.22499,-1.811177 -0.22914,-3.62767 -0.33999,-5.44086 -0.13106,-2.87143 -0.25851,-5.742912 -0.41091,-8.614084 -0.0523,-0.985455 -0.0973,-1.971034 -0.16564,-2.956245 -0.0738,-1.063756 -0.20888,-2.34052 -0.31966,-3.434761 0,0 -0.69068,0.179815 -0.69068,0.179815 z"
       inkscape:export-xdpi="600"
       inkscape:export-ydpi="600" />
    <text
       xml:space="preserve"
       style="font-style:normal;font-variant:normal;font-weight:normal;font-stretch:normal;font-size:6.35px;line-height:1.25;font-family:'Aboriginal Sans';-inkscape-font-specification:'Aboriginal Sans, Normal';font-variant-ligatures:normal;font-variant-caps:normal;font-variant-numeric:normal;font-variant-east-asian:normal;letter-spacing:0px;word-spacing:0px;fill:#00aad4;fill-opacity:1;stroke:none;stroke-width:0.264583"
       x="142.90656"
       y="60.544502"
       id="text849-9-3"
       inkscape:export-xdpi="600"
       inkscape:export-ydpi="600"><tspan
         sodipodi:role="line"
         id="tspan847-4-8"
         x="142.90656"
         y="60.544502"
         style="font-style:normal;font-variant:normal;font-weight:normal;font-stretch:normal;font-size:6.35px;font-family:'Aboriginal Sans';-inkscape-font-specification:'Aboriginal Sans, Normal';font-variant-ligatures:normal;font-variant-caps:normal;font-variant-numeric:normal;font-variant-east-asian:normal;fill:#00aad4;fill-opacity:1;stroke-width:0.264583">Numeric</tspan><tspan
         sodipodi:role="line"
         x="142.90656"
         y="68.482002"
         style="font-style:normal;font-variant:normal;font-weight:normal;font-stretch:normal;font-size:6.35px;font-family:'Aboriginal Sans';-inkscape-font-specification:'Aboriginal Sans, Normal';font-variant-ligatures:normal;font-variant-caps:normal;font-variant-numeric:normal;font-variant-east-asian:normal;fill:#00aad4;fill-opacity:1;stroke-width:0.264583"
         id="tspan939" /></text>
    <path
       style="fill:#aad400;fill-opacity:1;stroke-width:5.56501;stroke-linecap:round;paint-order:markers fill stroke"
       id="path839-1-3"
       d="m 38.208086,80.512439 c 0.51633,0.05438 1.08794,0.120629 1.59075,0.123986 2.42299,0.01619 3.82846,-0.183417 6.47861,-0.514696 3.75584,-0.469498 8.15694,-1.160069 11.88076,-1.722419 8.36014,-1.290511 4.28679,-0.662006 12.22004,-1.885596 0,0 0.41454,-0.311062 0.41454,-0.311062 v 0 c -7.95294,1.246534 -3.87506,0.613769 -12.23393,1.896348 -3.92156,0.58516 -7.86395,1.20732 -11.80377,1.668256 -2.46853,0.288803 -4.04083,0.477898 -6.34781,0.433985 -0.52641,-0.01003 -1.03689,-0.08268 -1.5551,-0.149249 0,0 -0.64409,0.460447 -0.64409,0.460447 z"
       inkscape:export-xdpi="600"
       inkscape:export-ydpi="600" />
    <path
       style="fill:#aad400;fill-opacity:1;stroke-width:5.56501;stroke-linecap:round;paint-order:markers fill stroke"
       id="path841-4-2"
       d="m 38.759026,80.967554 c 0.24213,0.715947 0.46215,1.319575 0.62404,2.082271 0.15389,0.724926 0.26803,1.457954 0.37965,2.190578 0.3985,2.615438 0.63183,5.246904 0.86174,7.88099 0.1544,1.999922 0.31847,3.998705 0.56939,5.989003 0,0 0.67228,-0.354077 0.67228,-0.354077 v 0 c -0.28851,-1.974168 -0.47508,-3.959971 -0.64042,-5.948037 -0.23942,-2.636604 -0.47981,-5.270597 -0.84988,-7.892983 -0.1045,-0.74045 -0.20359,-1.482421 -0.34619,-2.216486 -0.13326,-0.686054 -0.37614,-1.439619 -0.58388,-2.119816 0,0 -0.68673,0.388557 -0.68673,0.388557 z"
       inkscape:export-xdpi="600"
       inkscape:export-ydpi="600" />
    <path
       style="fill:#aad400;fill-opacity:1;stroke-width:5.56501;stroke-linecap:round;paint-order:markers fill stroke"
       id="path843-2-3"
       d="m 39.774906,96.842058 c 0.19603,0.037 0.38973,0.0897 0.58808,0.11085 3.57144,0.38065 7.18035,0.404997 10.76595,0.33102 5.38295,-0.11107 7.4694,-0.30655 12.89186,-0.655967 2.02829,-0.1815 4.05657,-0.363007 6.08486,-0.544507 0,0 0.40693,-0.30131 0.40693,-0.30131 v 0 c -2.03424,0.18645 -4.06848,0.37289 -6.10272,0.559337 -5.31521,0.33685 -7.56279,0.546747 -12.8387,0.621347 -3.52219,0.0498 -7.07271,-0.0129 -10.5738,-0.452197 -0.19206,-0.0241 -0.37915,-0.0783 -0.56872,-0.11745 0,0 -0.65374,0.448877 -0.65374,0.448877 z"
       inkscape:export-xdpi="600"
       inkscape:export-ydpi="600" />
    <path
       style="fill:#aad400;fill-opacity:1;stroke-width:3.92793;stroke-linecap:round;paint-order:markers fill stroke"
       id="path845-3-3"
       d="m 71.567266,77.655544 c 0.0745,0.428611 0.1627,0.856687 0.22347,1.285836 0.25609,1.808424 0.36731,3.180053 0.49355,5.04284 0.19473,2.873609 0.286,5.74846 0.37329,8.623239 0.0504,1.829815 0.0655,3.660075 0.15281,5.489603 0,0 0.68376,-0.1754 0.68376,-0.1754 v 0 c -0.22499,-1.811158 -0.22914,-3.627653 -0.33999,-5.440843 -0.13106,-2.87143 -0.25851,-5.742912 -0.41091,-8.614084 -0.0523,-0.985455 -0.0973,-1.971034 -0.16564,-2.956245 -0.0738,-1.063756 -0.20888,-2.34052 -0.31966,-3.434761 0,0 -0.69068,0.179815 -0.69068,0.179815 z"
       inkscape:export-xdpi="600"
       inkscape:export-ydpi="600" />
    <text
       xml:space="preserve"
       style="font-style:normal;font-variant:normal;font-weight:normal;font-stretch:normal;font-size:6.35px;line-height:1.25;font-family:'Aboriginal Sans';-inkscape-font-specification:'Aboriginal Sans, Normal';font-variant-ligatures:normal;font-variant-caps:normal;font-variant-numeric:normal;font-variant-east-asian:normal;letter-spacing:0px;word-spacing:0px;fill:#aad400;fill-opacity:1;stroke:none;stroke-width:0.264583"
       x="45.137688"
       y="90.021576"
       id="text849-9-8"
       inkscape:export-xdpi="600"
       inkscape:export-ydpi="600"><tspan
         sodipodi:role="line"
         id="tspan847-4-9"
         x="45.137688"
         y="90.021576"
         style="font-style:normal;font-variant:normal;font-weight:normal;font-stretch:normal;font-size:6.35px;font-family:'Aboriginal Sans';-inkscape-font-specification:'Aboriginal Sans, Normal';font-variant-ligatures:normal;font-variant-caps:normal;font-variant-numeric:normal;font-variant-east-asian:normal;fill:#aad400;fill-opacity:1;stroke-width:0.264583">Nominal</tspan></text>
    <path
       style="fill:#aad400;fill-opacity:1;stroke-width:5.56501;stroke-linecap:round;paint-order:markers fill stroke"
       id="path839-1-6"
       d="m 40.547852,105.46228 c 0.51633,0.0544 1.08794,0.12062 1.59075,0.12398 2.42299,0.0162 3.82846,-0.18342 6.47861,-0.51469 3.75584,-0.4695 8.15694,-1.16007 11.880763,-1.72242 8.36014,-1.29051 4.28679,-0.66201 12.22004,-1.8856 0,0 0.41454,-0.31106 0.41454,-0.31106 v 0 c -7.95294,1.24653 -3.87506,0.61377 -12.23393,1.89635 -3.921563,0.58516 -7.863953,1.20732 -11.803773,1.66825 -2.46853,0.28881 -4.04083,0.4779 -6.34781,0.43399 -0.52641,-0.01 -1.03689,-0.0827 -1.5551,-0.14925 0,0 -0.64409,0.46045 -0.64409,0.46045 z"
       inkscape:export-xdpi="600"
       inkscape:export-ydpi="600" />
    <path
       style="fill:#aad400;fill-opacity:1;stroke-width:5.56501;stroke-linecap:round;paint-order:markers fill stroke"
       id="path841-4-1"
       d="m 41.098792,105.91739 c 0.24213,0.71595 0.46215,1.31958 0.62404,2.08227 0.15389,0.72493 0.26803,1.45796 0.37965,2.19058 0.3985,2.61544 0.63183,5.2469 0.86174,7.88099 0.1544,1.99992 0.31847,3.99871 0.56939,5.98902 0,0 0.67228,-0.35407 0.67228,-0.35407 v 0 c -0.28851,-1.97419 -0.47508,-3.96 -0.64042,-5.94806 -0.23942,-2.63661 -0.47981,-5.2706 -0.84988,-7.89298 -0.1045,-0.74045 -0.20359,-1.48243 -0.34619,-2.21649 -0.13326,-0.68605 -0.37614,-1.43962 -0.58388,-2.11982 0,0 -0.68673,0.38856 -0.68673,0.38856 z"
       inkscape:export-xdpi="600"
       inkscape:export-ydpi="600" />
    <path
       style="fill:#aad400;fill-opacity:1;stroke-width:5.56501;stroke-linecap:round;paint-order:markers fill stroke"
       id="path843-2-9"
       d="m 42.114672,121.7919 c 0.19603,0.0369 0.38973,0.0897 0.58808,0.11086 3.57144,0.38064 7.18035,0.40499 10.76595,0.33101 5.38295,-0.11107 7.469403,-0.30655 12.891863,-0.65596 2.02829,-0.18151 4.05657,-0.36301 6.08486,-0.54452 0,0 0.40693,-0.3013 0.40693,-0.3013 v 0 c -2.03424,0.18644 -4.06848,0.37289 -6.10272,0.55933 -5.31521,0.33685 -7.562793,0.54675 -12.838703,0.62136 -3.52219,0.0498 -7.07271,-0.0129 -10.5738,-0.45221 -0.19206,-0.0241 -0.37915,-0.0783 -0.56872,-0.11744 0,0 -0.65374,0.44887 -0.65374,0.44887 z"
       inkscape:export-xdpi="600"
       inkscape:export-ydpi="600" />
    <path
       style="fill:#aad400;fill-opacity:1;stroke-width:3.92793;stroke-linecap:round;paint-order:markers fill stroke"
       id="path845-3-5"
       d="m 73.907035,102.60538 c 0.0745,0.42861 0.1627,0.85669 0.22347,1.28584 0.25609,1.80842 0.36731,3.18005 0.49355,5.04284 0.19473,2.87361 0.286,5.74846 0.37329,8.62324 0.0504,1.82981 0.0655,3.66007 0.15281,5.48961 0,0 0.68376,-0.17539 0.68376,-0.17539 v 0 c -0.22499,-1.81118 -0.22914,-3.62767 -0.33999,-5.44086 -0.13106,-2.87143 -0.25851,-5.74292 -0.41091,-8.61409 -0.0523,-0.98545 -0.0973,-1.97103 -0.16564,-2.95624 -0.0738,-1.06376 -0.20888,-2.34052 -0.31966,-3.43476 0,0 -0.69068,0.17981 -0.69068,0.17981 z"
       inkscape:export-xdpi="600"
       inkscape:export-ydpi="600" />
    <text
       xml:space="preserve"
       style="font-style:normal;font-variant:normal;font-weight:normal;font-stretch:normal;font-size:6.35px;line-height:1.25;font-family:'Aboriginal Sans';-inkscape-font-specification:'Aboriginal Sans, Normal';font-variant-ligatures:normal;font-variant-caps:normal;font-variant-numeric:normal;font-variant-east-asian:normal;letter-spacing:0px;word-spacing:0px;fill:#aad400;fill-opacity:1;stroke:none;stroke-width:0.264583"
       x="49.08107"
       y="115.10511"
       id="text849-9-85"
       inkscape:export-xdpi="600"
       inkscape:export-ydpi="600"><tspan
         sodipodi:role="line"
         id="tspan847-4-83"
         x="49.08107"
         y="115.10511"
         style="font-style:normal;font-variant:normal;font-weight:normal;font-stretch:normal;font-size:6.35px;font-family:'Aboriginal Sans';-inkscape-font-specification:'Aboriginal Sans, Normal';font-variant-ligatures:normal;font-variant-caps:normal;font-variant-numeric:normal;font-variant-east-asian:normal;fill:#aad400;fill-opacity:1;stroke-width:0.264583">Ordinal</tspan><tspan
         sodipodi:role="line"
         x="49.08107"
         y="123.04261"
         style="font-style:normal;font-variant:normal;font-weight:normal;font-stretch:normal;font-size:6.35px;font-family:'Aboriginal Sans';-inkscape-font-specification:'Aboriginal Sans, Normal';font-variant-ligatures:normal;font-variant-caps:normal;font-variant-numeric:normal;font-variant-east-asian:normal;fill:#aad400;fill-opacity:1;stroke-width:0.264583"
         id="tspan1005" /></text>
    <path
       style="fill:#00aad4;fill-opacity:1;stroke-width:5.56501;stroke-linecap:round;paint-order:markers fill stroke"
       id="path839-1-3-5"
       d="m 119.84032,76.93241 c 0.51633,0.0544 1.08794,0.12063 1.59075,0.12399 2.42299,0.0162 3.82846,-0.18342 6.47861,-0.5147 3.75584,-0.46949 8.15694,-1.16006 11.88076,-1.72242 8.36014,-1.29051 4.28679,-0.662 12.22004,-1.88559 0,0 0.41454,-0.31106 0.41454,-0.31106 v 0 c -7.95294,1.24653 -3.87506,0.61377 -12.23393,1.89634 -3.92156,0.58516 -7.86395,1.20732 -11.80377,1.66826 -2.46853,0.2888 -4.04083,0.4779 -6.34781,0.43399 -0.52641,-0.01 -1.03689,-0.0827 -1.5551,-0.14925 0,0 -0.64409,0.46044 -0.64409,0.46044 z"
       inkscape:export-xdpi="600"
       inkscape:export-ydpi="600" />
    <path
       style="fill:#00aad4;fill-opacity:1;stroke-width:5.56501;stroke-linecap:round;paint-order:markers fill stroke"
       id="path841-4-2-0"
       d="m 120.39126,77.38753 c 0.24213,0.71595 0.46215,1.31957 0.62404,2.08227 0.15389,0.72493 0.26803,1.45795 0.37965,2.19058 0.3985,2.61544 0.63183,5.2469 0.86174,7.88099 0.1544,1.99992 0.31847,3.99871 0.56939,5.989017 0,0 0.67228,-0.354077 0.67228,-0.354077 v 0 c -0.28851,-1.97418 -0.47508,-3.95999 -0.64042,-5.94805 -0.23942,-2.63661 -0.47981,-5.2706 -0.84988,-7.89299 -0.1045,-0.74045 -0.20359,-1.48242 -0.34619,-2.21648 -0.13326,-0.68606 -0.37614,-1.43962 -0.58388,-2.11982 0,0 -0.68673,0.38856 -0.68673,0.38856 z"
       inkscape:export-xdpi="600"
       inkscape:export-ydpi="600" />
    <path
       style="fill:#00aad4;fill-opacity:1;stroke-width:5.56501;stroke-linecap:round;paint-order:markers fill stroke"
       id="path843-2-3-8"
       d="m 121.40714,93.26204 c 0.19603,0.037 0.38973,0.0897 0.58808,0.11085 3.57144,0.38065 7.18035,0.405 10.76595,0.33102 5.38295,-0.11107 7.4694,-0.30655 12.89186,-0.65597 2.02829,-0.1815 4.05657,-0.36301 6.08486,-0.54451 0,0 0.40693,-0.30131 0.40693,-0.30131 v 0 c -2.03424,0.18645 -4.06848,0.37289 -6.10272,0.55934 -5.31521,0.33685 -7.56279,0.54675 -12.8387,0.62135 -3.52219,0.0498 -7.07271,-0.0129 -10.5738,-0.4522 -0.19206,-0.0241 -0.37915,-0.0783 -0.56872,-0.11745 0,0 -0.65374,0.44888 -0.65374,0.44888 z"
       inkscape:export-xdpi="600"
       inkscape:export-ydpi="600" />
    <path
       style="fill:#00aad4;fill-opacity:1;stroke-width:3.92793;stroke-linecap:round;paint-order:markers fill stroke"
       id="path845-3-3-6"
       d="m 153.1995,74.07552 c 0.0745,0.42861 0.1627,0.85669 0.22347,1.28584 0.25609,1.80842 0.36731,3.18005 0.49355,5.04284 0.19473,2.8736 0.286,5.74845 0.37329,8.62323 0.0504,1.82982 0.0655,3.66008 0.15281,5.48962 0,0 0.68376,-0.1754 0.68376,-0.1754 v 0 c -0.22499,-1.81117 -0.22914,-3.62767 -0.33999,-5.44086 -0.13106,-2.87143 -0.25851,-5.74291 -0.41091,-8.61408 -0.0523,-0.98546 -0.0973,-1.97103 -0.16564,-2.95625 -0.0738,-1.06375 -0.20888,-2.34052 -0.31966,-3.43476 0,0 -0.69068,0.17982 -0.69068,0.17982 z"
       inkscape:export-xdpi="600"
       inkscape:export-ydpi="600" />
    <text
       xml:space="preserve"
       style="font-style:normal;font-variant:normal;font-weight:normal;font-stretch:normal;font-size:6.35px;line-height:1.25;font-family:'Aboriginal Sans';-inkscape-font-specification:'Aboriginal Sans, Normal';font-variant-ligatures:normal;font-variant-caps:normal;font-variant-numeric:normal;font-variant-east-asian:normal;letter-spacing:0px;word-spacing:0px;fill:#00aad4;fill-opacity:1;stroke:none;stroke-width:0.264583"
       x="126.76975"
       y="86.441551"
       id="text849-9-8-4"
       inkscape:export-xdpi="600"
       inkscape:export-ydpi="600"><tspan
         sodipodi:role="line"
         id="tspan847-4-9-9"
         x="126.76975"
         y="86.441551"
         style="font-style:normal;font-variant:normal;font-weight:normal;font-stretch:normal;font-size:6.35px;font-family:'Aboriginal Sans';-inkscape-font-specification:'Aboriginal Sans, Normal';font-variant-ligatures:normal;font-variant-caps:normal;font-variant-numeric:normal;font-variant-east-asian:normal;fill:#00aad4;fill-opacity:1;stroke-width:0.264583">Discrete</tspan></text>
    <path
       style="fill:#00aad4;fill-opacity:1;stroke-width:5.56501;stroke-linecap:round;paint-order:markers fill stroke"
       id="path839-1-6-6"
       d="m 122.18009,101.88225 c 0.51633,0.0544 1.08794,0.12062 1.59075,0.12398 2.42299,0.0162 3.82846,-0.18342 6.47861,-0.51469 3.75584,-0.4695 8.15693,-1.16007 11.88076,-1.722417 8.36014,-1.290504 4.28678,-0.662007 12.22004,-1.885591 0,0 0.41454,-0.311057 0.41454,-0.311057 v 0 c -7.95294,1.246524 -3.87507,0.613767 -12.23393,1.896341 -3.92157,0.585154 -7.86396,1.207314 -11.80377,1.668244 -2.46853,0.28881 -4.04083,0.4779 -6.34781,0.43399 -0.52641,-0.01 -1.03689,-0.0827 -1.5551,-0.14925 0,0 -0.64409,0.46045 -0.64409,0.46045 z"
       inkscape:export-xdpi="600"
       inkscape:export-ydpi="600" />
    <path
       style="fill:#00aad4;fill-opacity:1;stroke-width:5.56501;stroke-linecap:round;paint-order:markers fill stroke"
       id="path841-4-1-4"
       d="m 122.73103,102.33736 c 0.24213,0.71595 0.46215,1.31958 0.62404,2.08227 0.15389,0.72493 0.26803,1.45796 0.37965,2.19058 0.3985,2.61544 0.63183,5.2469 0.86174,7.88099 0.1544,1.99992 0.31847,3.99871 0.56939,5.98902 0,0 0.67228,-0.35407 0.67228,-0.35407 v 0 c -0.28851,-1.97419 -0.47508,-3.96 -0.64042,-5.94806 -0.23942,-2.63661 -0.47981,-5.2706 -0.84988,-7.89298 -0.1045,-0.74045 -0.20359,-1.48243 -0.34619,-2.21649 -0.13326,-0.68605 -0.37614,-1.43962 -0.58388,-2.11982 0,0 -0.68673,0.38856 -0.68673,0.38856 z"
       inkscape:export-xdpi="600"
       inkscape:export-ydpi="600" />
    <path
       style="fill:#00aad4;fill-opacity:1;stroke-width:5.56501;stroke-linecap:round;paint-order:markers fill stroke"
       id="path843-2-9-8"
       d="m 123.74691,118.21187 c 0.19603,0.0369 0.38973,0.0897 0.58808,0.11086 3.57144,0.38064 7.18035,0.40499 10.76594,0.33101 5.38295,-0.11107 7.4694,-0.30655 12.89187,-0.65596 2.02828,-0.18151 4.05656,-0.36301 6.08486,-0.54452 0,0 0.40693,-0.3013 0.40693,-0.3013 v 0 c -2.03424,0.18644 -4.06848,0.37289 -6.10272,0.55933 -5.31521,0.33685 -7.5628,0.54675 -12.83871,0.62136 -3.52218,0.0498 -7.0727,-0.0129 -10.57379,-0.45221 -0.19206,-0.0241 -0.37915,-0.0783 -0.56872,-0.11744 0,0 -0.65374,0.44887 -0.65374,0.44887 z"
       inkscape:export-xdpi="600"
       inkscape:export-ydpi="600" />
    <path
       style="fill:#00aad4;fill-opacity:1;stroke-width:3.92793;stroke-linecap:round;paint-order:markers fill stroke"
       id="path845-3-5-8"
       d="m 155.53926,99.025356 c 0.0745,0.42861 0.16271,0.856687 0.22348,1.285834 0.25609,1.80842 0.36731,3.18005 0.49355,5.04284 0.19473,2.87361 0.286,5.74846 0.37329,8.62324 0.0504,1.82981 0.0655,3.66007 0.15281,5.48961 0,0 0.68376,-0.17539 0.68376,-0.17539 v 0 c -0.22499,-1.81118 -0.22914,-3.62767 -0.33999,-5.44086 -0.13106,-2.87143 -0.25851,-5.74292 -0.41091,-8.61409 -0.0523,-0.98545 -0.0973,-1.97103 -0.16564,-2.95624 -0.0738,-1.06376 -0.20888,-2.340517 -0.31966,-3.434751 0,0 -0.69068,0.179807 -0.69069,0.179807 z"
       inkscape:export-xdpi="600"
       inkscape:export-ydpi="600" />
    <text
       xml:space="preserve"
       style="font-style:normal;font-variant:normal;font-weight:normal;font-stretch:normal;font-size:6.35px;line-height:1.25;font-family:'Aboriginal Sans';-inkscape-font-specification:'Aboriginal Sans, Normal';font-variant-ligatures:normal;font-variant-caps:normal;font-variant-numeric:normal;font-variant-east-asian:normal;letter-spacing:0px;word-spacing:0px;fill:#00aad4;fill-opacity:1;stroke:none;stroke-width:0.264583"
       x="124.89235"
       y="111.52512"
       id="text849-9-85-1"
       inkscape:export-xdpi="600"
       inkscape:export-ydpi="600"><tspan
         sodipodi:role="line"
         x="124.89235"
         y="111.52512"
         style="font-style:normal;font-variant:normal;font-weight:normal;font-stretch:normal;font-size:6.35px;font-family:'Aboriginal Sans';-inkscape-font-specification:'Aboriginal Sans, Normal';font-variant-ligatures:normal;font-variant-caps:normal;font-variant-numeric:normal;font-variant-east-asian:normal;fill:#00aad4;fill-opacity:1;stroke-width:0.264583"
         id="tspan1005-2">Continuous</tspan></text>
    <path
       style="fill:#00aad4;fill-opacity:1;stroke-width:5.56501;stroke-linecap:round;paint-order:markers fill stroke"
       id="path839-1-3-5-2"
       d="m 161.668,75.729702 c 0.51633,0.0544 1.08794,0.12063 1.59075,0.12399 2.42299,0.0162 3.82846,-0.18342 6.47861,-0.5147 3.75584,-0.46949 8.15694,-1.16006 11.88076,-1.72242 8.36014,-1.29051 4.28679,-0.662 12.22004,-1.88559 0,0 0.41454,-0.31106 0.41454,-0.31106 v 0 c -7.95294,1.24653 -3.87506,0.61377 -12.23393,1.89634 -3.92156,0.58516 -7.86395,1.20732 -11.80377,1.66826 -2.46853,0.2888 -4.04083,0.4779 -6.34781,0.43399 -0.52641,-0.01 -1.03689,-0.0827 -1.5551,-0.14925 0,0 -0.64409,0.46044 -0.64409,0.46044 z"
       inkscape:export-xdpi="600"
       inkscape:export-ydpi="600" />
    <path
       style="fill:#00aad4;fill-opacity:1;stroke-width:5.56501;stroke-linecap:round;paint-order:markers fill stroke"
       id="path841-4-2-0-3"
       d="m 162.21894,76.184822 c 0.24213,0.71595 0.46215,1.31957 0.62404,2.08227 0.15389,0.72493 0.26803,1.45795 0.37965,2.19058 0.3985,2.61544 0.63183,5.2469 0.86174,7.88099 0.1544,1.99992 0.31847,3.99871 0.56939,5.98901 0,0 0.67228,-0.35407 0.67228,-0.35407 v 0 c -0.28851,-1.97418 -0.47508,-3.95999 -0.64042,-5.94805 -0.23942,-2.63661 -0.47981,-5.2706 -0.84988,-7.89299 -0.1045,-0.74045 -0.20359,-1.48242 -0.34619,-2.21648 -0.13326,-0.68606 -0.37614,-1.43962 -0.58388,-2.11982 0,0 -0.68673,0.38856 -0.68673,0.38856 z"
       inkscape:export-xdpi="600"
       inkscape:export-ydpi="600" />
    <path
       style="fill:#00aad4;fill-opacity:1;stroke-width:5.56501;stroke-linecap:round;paint-order:markers fill stroke"
       id="path843-2-3-8-5"
       d="m 163.23482,92.059332 c 0.19603,0.037 0.38973,0.0897 0.58808,0.11085 3.57144,0.38065 7.18035,0.405 10.76595,0.33102 5.38295,-0.11107 7.4694,-0.30655 12.89186,-0.65597 2.02829,-0.1815 4.05657,-0.36301 6.08486,-0.54451 0,0 0.40693,-0.30131 0.40693,-0.30131 v 0 c -2.03424,0.18645 -4.06848,0.37289 -6.10272,0.55934 -5.31521,0.33685 -7.56279,0.54675 -12.8387,0.62135 -3.52219,0.0498 -7.07271,-0.0129 -10.5738,-0.4522 -0.19206,-0.0241 -0.37915,-0.0783 -0.56872,-0.11745 0,0 -0.65374,0.44888 -0.65374,0.44888 z"
       inkscape:export-xdpi="600"
       inkscape:export-ydpi="600" />
    <path
       style="fill:#00aad4;fill-opacity:1;stroke-width:3.92793;stroke-linecap:round;paint-order:markers fill stroke"
       id="path845-3-3-6-1"
       d="m 195.02718,72.872812 c 0.0745,0.42861 0.1627,0.85669 0.22347,1.28584 0.25609,1.80842 0.36731,3.18005 0.49355,5.04284 0.19473,2.8736 0.286,5.74845 0.37329,8.62323 0.0504,1.82982 0.0655,3.66008 0.15281,5.48962 0,0 0.68376,-0.1754 0.68376,-0.1754 v 0 c -0.22499,-1.81117 -0.22914,-3.62767 -0.33999,-5.44086 -0.13106,-2.87143 -0.25851,-5.74291 -0.41091,-8.61408 -0.0523,-0.98546 -0.0973,-1.97103 -0.16564,-2.95625 -0.0738,-1.06375 -0.20888,-2.34052 -0.31966,-3.43476 0,0 -0.69068,0.17982 -0.69068,0.17982 z"
       inkscape:export-xdpi="600"
       inkscape:export-ydpi="600" />
    <text
       xml:space="preserve"
       style="font-style:normal;font-variant:normal;font-weight:normal;font-stretch:normal;font-size:6.35px;line-height:1.25;font-family:'Aboriginal Sans';-inkscape-font-specification:'Aboriginal Sans, Normal';font-variant-ligatures:normal;font-variant-caps:normal;font-variant-numeric:normal;font-variant-east-asian:normal;letter-spacing:0px;word-spacing:0px;fill:#00aad4;fill-opacity:1;stroke:none;stroke-width:0.264583"
       x="170.18471"
       y="85.238846"
       id="text849-9-8-4-0"
       inkscape:export-xdpi="600"
       inkscape:export-ydpi="600"><tspan
         sodipodi:role="line"
         id="tspan847-4-9-9-2"
         x="170.18471"
         y="85.238846"
         style="font-style:normal;font-variant:normal;font-weight:normal;font-stretch:normal;font-size:6.35px;font-family:'Aboriginal Sans';-inkscape-font-specification:'Aboriginal Sans, Normal';font-variant-ligatures:normal;font-variant-caps:normal;font-variant-numeric:normal;font-variant-east-asian:normal;fill:#00aad4;fill-opacity:1;stroke-width:0.264583">Interval</tspan></text>
    <path
       style="fill:#00aad4;fill-opacity:1;stroke-width:5.56501;stroke-linecap:round;paint-order:markers fill stroke"
       id="path839-1-6-6-5"
       d="m 164.00777,100.67953 c 0.51633,0.0544 1.08794,0.12062 1.59075,0.12398 2.42299,0.0162 3.82846,-0.18342 6.47861,-0.51469 3.75584,-0.469497 8.15693,-1.160064 11.88076,-1.722411 8.36014,-1.290501 4.28678,-0.662007 12.22004,-1.885588 0,0 0.41454,-0.31106 0.41454,-0.31106 v 0 c -7.95294,1.246524 -3.87507,0.613767 -12.23393,1.896341 -3.92157,0.585157 -7.86396,1.207311 -11.80377,1.668241 -2.46853,0.288807 -4.04083,0.477897 -6.34781,0.433987 -0.52641,-0.01 -1.03689,-0.0827 -1.5551,-0.14925 0,0 -0.64409,0.46045 -0.64409,0.46045 z"
       inkscape:export-xdpi="600"
       inkscape:export-ydpi="600" />
    <path
       style="fill:#00aad4;fill-opacity:1;stroke-width:5.56501;stroke-linecap:round;paint-order:markers fill stroke"
       id="path841-4-1-4-0"
       d="m 164.55871,101.13464 c 0.24213,0.71595 0.46215,1.31958 0.62404,2.08227 0.15389,0.72493 0.26803,1.45796 0.37965,2.19058 0.3985,2.61544 0.63183,5.2469 0.86174,7.88099 0.1544,1.99992 0.31847,3.99871 0.56939,5.98902 0,0 0.67228,-0.35407 0.67228,-0.35407 v 0 c -0.28851,-1.97419 -0.47508,-3.96 -0.64042,-5.94806 -0.23942,-2.63661 -0.47981,-5.2706 -0.84988,-7.89298 -0.1045,-0.74045 -0.20359,-1.48243 -0.34619,-2.21649 -0.13326,-0.68605 -0.37614,-1.43962 -0.58388,-2.11982 0,0 -0.68673,0.38856 -0.68673,0.38856 z"
       inkscape:export-xdpi="600"
       inkscape:export-ydpi="600" />
    <path
       style="fill:#00aad4;fill-opacity:1;stroke-width:5.56501;stroke-linecap:round;paint-order:markers fill stroke"
       id="path843-2-9-8-2"
       d="m 165.57459,117.00915 c 0.19603,0.0369 0.38973,0.0897 0.58808,0.11086 3.57144,0.38064 7.18035,0.40499 10.76594,0.33101 5.38295,-0.11107 7.4694,-0.30655 12.89187,-0.65596 2.02828,-0.18151 4.05656,-0.36301 6.08486,-0.54452 0,0 0.40693,-0.3013 0.40693,-0.3013 v 0 c -2.03424,0.18644 -4.06848,0.37289 -6.10272,0.55933 -5.31521,0.33685 -7.5628,0.54675 -12.83871,0.62136 -3.52218,0.0498 -7.0727,-0.0129 -10.57379,-0.45221 -0.19206,-0.0241 -0.37915,-0.0783 -0.56872,-0.11744 0,0 -0.65374,0.44887 -0.65374,0.44887 z"
       inkscape:export-xdpi="600"
       inkscape:export-ydpi="600" />
    <path
       style="fill:#00aad4;fill-opacity:1;stroke-width:3.92793;stroke-linecap:round;paint-order:markers fill stroke"
       id="path845-3-5-8-8"
       d="m 197.36694,97.822645 c 0.0745,0.428607 0.16271,0.856684 0.22348,1.285831 0.25609,1.808414 0.36731,3.180044 0.49355,5.042834 0.19473,2.87361 0.286,5.74846 0.37329,8.62324 0.0504,1.82981 0.0655,3.66007 0.15281,5.48961 0,0 0.68376,-0.17539 0.68376,-0.17539 v 0 c -0.22499,-1.81118 -0.22914,-3.62767 -0.33999,-5.44086 -0.13106,-2.87143 -0.25851,-5.74292 -0.41091,-8.61409 -0.0523,-0.98545 -0.0973,-1.97103 -0.16564,-2.95624 -0.0738,-1.06376 -0.20888,-2.340511 -0.31966,-3.434745 0,0 -0.69068,0.17981 -0.69069,0.17981 z"
       inkscape:export-xdpi="600"
       inkscape:export-ydpi="600" />
    <text
       xml:space="preserve"
       style="font-style:normal;font-variant:normal;font-weight:normal;font-stretch:normal;font-size:6.35px;line-height:1.25;font-family:'Aboriginal Sans';-inkscape-font-specification:'Aboriginal Sans, Normal';font-variant-ligatures:normal;font-variant-caps:normal;font-variant-numeric:normal;font-variant-east-asian:normal;letter-spacing:0px;word-spacing:0px;fill:#00aad4;fill-opacity:1;stroke:none;stroke-width:0.264583"
       x="175.18642"
       y="110.3224"
       id="text849-9-85-1-4"
       inkscape:export-xdpi="600"
       inkscape:export-ydpi="600"><tspan
         sodipodi:role="line"
         id="tspan847-4-83-5-1"
         x="175.18642"
         y="110.3224"
         style="font-style:normal;font-variant:normal;font-weight:normal;font-stretch:normal;font-size:6.35px;font-family:'Aboriginal Sans';-inkscape-font-specification:'Aboriginal Sans, Normal';font-variant-ligatures:normal;font-variant-caps:normal;font-variant-numeric:normal;font-variant-east-asian:normal;fill:#00aad4;fill-opacity:1;stroke-width:0.264583">Ratio</tspan><tspan
         sodipodi:role="line"
         x="175.18642"
         y="118.2599"
         style="font-style:normal;font-variant:normal;font-weight:normal;font-stretch:normal;font-size:6.35px;font-family:'Aboriginal Sans';-inkscape-font-specification:'Aboriginal Sans, Normal';font-variant-ligatures:normal;font-variant-caps:normal;font-variant-numeric:normal;font-variant-east-asian:normal;fill:#00aad4;fill-opacity:1;stroke-width:0.264583"
         id="tspan1005-2-1" /></text>
    <path
       style="fill:#374548;fill-opacity:1;stroke-width:7.10374;stroke-linecap:round;paint-order:markers fill stroke"
       id="path1215"
       d="m 122.31572,70.303369 c 8.74759,-0.08061 17.49933,-0.02183 26.24559,-0.160549 8.13726,-0.129056 17.70546,-0.430676 25.84555,-0.665208 4.01335,-0.148193 8.0267,-0.296386 12.04005,-0.444579 0,0 0.559,-0.252458 0.559,-0.252458 v 0 c -4.02306,0.152811 -8.04612,0.305618 -12.0692,0.458428 -9.21731,0.268671 -16.54018,0.519959 -25.77642,0.636225 -8.60317,0.108297 -17.208,0.0021 -25.81109,-0.03267 0,0 -1.03348,0.460809 -1.03348,0.460809 z"
       inkscape:export-xdpi="600"
       inkscape:export-ydpi="600" />
    <path
       style="fill:#374548;fill-opacity:1;stroke-width:7.10374;stroke-linecap:round;paint-order:markers fill stroke"
       id="path1215-3"
       d="m 28.33046,72.705248 c 8.747587,-0.08061 17.499327,-0.02183 26.245587,-0.160549 8.13726,-0.129056 17.70546,-0.430676 25.84555,-0.665208 4.01335,-0.148193 8.0267,-0.296386 12.04005,-0.444579 0,0 0.559,-0.252458 0.559,-0.252458 v 0 c -4.02306,0.152811 -8.04612,0.305618 -12.0692,0.458428 -9.21731,0.268671 -16.54018,0.519959 -25.77642,0.636225 -8.60317,0.108297 -17.208,0.0021 -25.811087,-0.03267 0,0 -1.03348,0.460809 -1.03348,0.460809 z"
       inkscape:export-xdpi="600"
       inkscape:export-ydpi="600" />
    <path
       style="fill:#374548;fill-opacity:1;stroke-width:7.10374;stroke-linecap:round;paint-order:markers fill stroke"
       id="path1215-6"
       d="m 74.306187,44.925333 c 8.74759,-0.08061 17.49933,-0.02183 26.245583,-0.160549 8.13726,-0.129056 17.70546,-0.430676 25.84555,-0.665208 4.01335,-0.148193 8.0267,-0.296386 12.04005,-0.444579 0,0 0.559,-0.252458 0.559,-0.252458 v 0 c -4.02306,0.152811 -8.04612,0.305618 -12.0692,0.458428 -9.21731,0.268671 -16.54018,0.519959 -25.77642,0.636225 -8.603163,0.108297 -17.207993,0.0021 -25.811083,-0.03267 0,0 -1.03348,0.460809 -1.03348,0.460809 z"
       inkscape:export-xdpi="600"
       inkscape:export-ydpi="600" />
  </g>
</svg>
